<?xml version="1.0" standalone="no"?>
<!DOCTYPE svg PUBLIC "-//W3C//DTD SVG 1.0//EN" "http://www.w3.org/TR/2001/REC-SVG-20010904/DTD/svg10.dtd">
<svg xmlns="http://www.w3.org/2000/svg" xmlns:xlink="http://www.w3.org/1999/xlink" id="body_1" width="154" height="115">

<g transform="matrix(0.22460938 0 0 0.22460938 19.499998 -0)">
    <path d="M296.982 145.655L215.018 145.655C 208.21501 145.655 202.51901 150.81 201.843 157.579L201.843 157.579L194.207 233.931L317.793 233.931L310.158 157.57901C 309.481 150.809 303.785 145.655 296.982 145.655z" stroke="none" fill="#AFB9D2" fill-rule="nonzero" />
    <path d="M17.655 233.931L494.345 233.931L494.345 392.828L17.655 392.828z" stroke="none" fill="#E1C3A0" fill-rule="nonzero" />
	<g>
        <path d="M17.655 436.966C 12.780001 436.966 8.827001 433.013 8.827001 428.138L8.827001 428.138L8.827001 233.931L26.482002 233.931L26.482002 428.138C 26.483 433.013 22.53 436.966 17.655 436.966z" stroke="none" fill="#EBD2AF" fill-rule="nonzero" />
        <path d="M494.345 436.966C 489.47 436.966 485.517 433.013 485.517 428.138L485.517 428.138L485.517 233.931L503.172 233.931L503.172 428.138C 503.172 433.013 499.22 436.966 494.345 436.966z" stroke="none" fill="#EBD2AF" fill-rule="nonzero" />
	</g>
    <path d="M277.601 172.922L277.601 153.89L234.399 153.89L234.399 172.922L256 194.675L277.601 172.922" stroke="none" fill="#D29B6E" fill-rule="nonzero" />
    <path d="M310.464 176.353L281.055 169.757C 280.611 169.658 280.202 169.489 279.82 169.284L279.82 169.284L256 182.528L233.109 168.643C 232.51599 169.175 231.78 169.57 230.94499 169.757L230.94499 169.757L201.536 176.353C 197.241 177.316 194.207 180.969 194.207 185.174L194.207 185.174L194.207 225.10199C 194.207 227.605 196.336 229.633 198.961 229.633L198.961 229.633L313.04102 229.633C 315.66602 229.633 317.795 227.605 317.795 225.10199L317.795 225.10199L317.795 185.17299C 317.793 180.969 314.759 177.316 310.464 176.353z" stroke="none" fill="#707487" fill-rule="nonzero" />
	<g>
        <path d="M300.345 192.746L315.746 179.559C 317.037 181.117 317.793 183.07701 317.793 185.17401L317.793 185.17401L317.793 225.10301C 317.793 227.60602 315.664 229.63402 313.039 229.63402L313.039 229.63402L296.402 229.63402L296.402 201.17201C 296.403 197.958 297.836 194.894 300.345 192.746z" stroke="none" fill="#5B5D6E" fill-rule="nonzero" />
        <path d="M211.655 192.746L196.254 179.559C 194.963 181.117 194.207 183.07701 194.207 185.17401L194.207 185.17401L194.207 225.10301C 194.207 227.60602 196.336 229.63402 198.961 229.63402L198.961 229.63402L215.59799 229.63402L215.59799 201.17201C 215.597 197.958 214.164 194.894 211.655 192.746z" stroke="none" fill="#5B5D6E" fill-rule="nonzero" />
        <path d="M261.942 229.634L250.058 229.634L251.543 182.452L260.456 182.452L261.942 229.634" stroke="none" fill="#5B5D6E" fill-rule="nonzero" />
        <path d="M234.276 163.892L256 182.528C 256 182.528 249.91699 185.455 242.409 191.356C 240.86 192.573 238.517 192.08 237.687 190.339L237.687 190.339L227.481 168.93701L230.71 164.32C 231.512 163.17 233.199 162.968 234.276 163.892z" stroke="none" fill="#5B5D6E" fill-rule="nonzero" />
        <path d="M277.724 163.892L256 182.528C 256 182.528 262.083 185.455 269.591 191.356C 271.14 192.573 273.483 192.08 274.313 190.339L274.313 190.339L284.51898 168.93701L281.28998 164.32C 280.488 163.17 278.801 162.968 277.724 163.892z" stroke="none" fill="#5B5D6E" fill-rule="nonzero" />
	</g>
    <path d="M264.828 75.034L247.173 75.034C 232.547 75.034 220.69 86.891 220.69 101.517L220.69 101.517L220.69 120.687C 220.69 125.368996 222.55 129.86 225.86101 133.17099L225.86101 133.17099L229.518 136.827L282.484 136.827L286.14102 133.17C 289.45203 129.859 291.312 125.368996 291.312 120.686L291.312 120.686L291.312 101.517C 291.31 86.891 279.454 75.034 264.828 75.034z" stroke="none" fill="#694B4B" fill-rule="nonzero" />
    <path d="M228.577 120.511L229.708 145.957C 229.885 149.926 231.788 153.607 234.898 155.992L234.898 155.992L243.861 162.864C 246.112 164.59 248.851 165.523 251.665 165.523L251.665 165.523L260.336 165.523C 263.15 165.523 265.889 164.58899 268.13998 162.864L268.13998 162.864L277.103 155.992C 280.212 153.60701 282.116 149.927 282.293 145.957L282.293 145.957L283.424 120.511C 283.837 111.227005 276.586 103.468 267.496 103.468L267.496 103.468L244.509 103.468C 235.416 103.468 228.164 111.226 228.577 120.511z" stroke="none" fill="#F0C087" fill-rule="nonzero" />
    <path d="M503.172 225.103L8.828 225.103C 3.953 225.103 0 229.056 0 233.931C 0 238.806 3.953 242.759 8.828 242.759L8.828 242.759L503.173 242.759C 508.048 242.759 512.001 238.806 512.001 233.931C 512 229.056 508.047 225.103 503.172 225.103z" stroke="none" fill="#F0DCBE" fill-rule="nonzero" />
    <path d="M441.379 225.103C 436.504 225.103 432.551 221.15 432.551 216.275L432.551 216.275L432.551 149.311L407.585 124.341C 404.249 121.009 399.813 119.170006 395.098 119.170006L395.098 119.170006L388.412 119.170006L388.412 136.82501C 388.412 141.70001 384.45898 145.65302 379.58398 145.65302C 374.70898 145.65302 370.75598 141.70001 370.75598 136.82501L370.75598 136.82501L370.75598 110.34201C 370.75598 105.46701 374.70898 101.51401 379.58398 101.51401L379.58398 101.51401L395.1 101.51401C 404.527 101.51401 413.393 105.186005 420.07 111.852005L420.07 111.852005L447.622 139.41101C 449.277 141.06601 450.208 143.31201 450.208 145.65201L450.208 145.65201L450.208 216.27301C 450.207 221.151 446.254 225.103 441.379 225.103z" stroke="none" fill="#C7CFE2" fill-rule="nonzero" />
	<g>
        <path d="M388.414 136.828L370.759 136.828C 361.008 136.828 353.104 144.73201 353.104 154.483L353.104 154.483L353.104 161.104C 353.104 162.323 354.092 163.311 355.311 163.311L355.311 163.311L403.863 163.311C 405.082 163.311 406.07 162.323 406.07 161.104L406.07 161.104L406.07 154.483C 406.069 144.732 398.164 136.828 388.414 136.828z" stroke="none" fill="#AFB9D2" fill-rule="nonzero" />
        <path d="M459.034 225.103L397.241 225.103L397.241 216.275C 397.241 211.4 401.194 207.44699 406.069 207.44699L406.069 207.44699L450.207 207.44699C 455.082 207.44699 459.035 211.4 459.035 216.275L459.035 216.275L459.035 225.103L459.034 225.103z" stroke="none" fill="#AFB9D2" fill-rule="nonzero" />
	</g>
	<g>
        <path d="M388.414 110.345C 388.41403 112.78279 387.55212 114.86357 385.82834 116.58734C 384.10455 118.31112 382.0238 119.173004 379.586 119.173004C 377.14822 119.173004 375.06744 118.31112 373.34366 116.58734C 371.61987 114.86357 370.758 112.78279 370.758 110.345C 370.758 107.90722 371.61987 105.82644 373.34366 104.10266C 375.06744 102.37889 377.14822 101.517 379.586 101.517C 382.0238 101.517 384.10455 102.37889 385.82834 104.10266C 387.55212 105.82644 388.41403 107.90722 388.414 110.345C 388.41403 110.44773 388.41223 110.55043 388.40863 110.65309" stroke="none" fill="#959CB3" fill-rule="nonzero" />
        <path d="M450.207 145.655C 450.207 148.09279 449.34512 150.17357 447.62134 151.89734C 445.89758 153.62112 443.8168 154.483 441.379 154.483C 438.94122 154.483 436.86044 153.62112 435.13666 151.89734C 433.4129 150.17357 432.55103 148.09279 432.551 145.655C 432.55103 143.21722 433.4129 141.13644 435.13666 139.41266C 436.86044 137.68889 438.94122 136.827 441.379 136.827C 443.8168 136.827 445.89758 137.68889 447.62134 139.41266C 449.34512 141.13644 450.207 143.21722 450.207 145.655C 450.207 145.75774 450.2052 145.86044 450.20163 145.96309" stroke="none" fill="#959CB3" fill-rule="nonzero" />
	</g>
    <path d="M139.034 225.103L55.172 225.103C 53.953 225.103 52.965 224.11499 52.965 222.896L52.965 222.896L52.965 209.655C 52.965 208.436 53.953 207.448 55.172 207.448L55.172 207.448L139.034 207.448C 140.25299 207.448 141.241 208.436 141.241 209.655L141.241 209.655L141.241 222.896C 141.241 224.116 140.254 225.103 139.034 225.103z" stroke="none" fill="#707487" fill-rule="nonzero" />
    <path d="M139.034 189.793L64 189.793C 62.781 189.793 61.793 188.805 61.793 187.586L61.793 187.586L61.793 174.345C 61.793 173.126 62.781 172.138 64 172.138L64 172.138L139.034 172.138C 140.25299 172.138 141.241 173.126 141.241 174.345L141.241 174.345L141.241 187.586C 141.241 188.806 140.254 189.793 139.034 189.793z" stroke="none" fill="#AFB9D2" fill-rule="nonzero" />
	<g>
        <path d="M147.862 172.138L81.655 172.138C 80.436 172.138 79.448 171.15 79.448 169.931L79.448 169.931L79.448 156.69C 79.448 155.47101 80.436 154.483 81.655 154.483L81.655 154.483L147.862 154.483C 149.081 154.483 150.069 155.47101 150.069 156.69L150.069 156.69L150.069 169.931C 150.069 171.15 149.081 172.138 147.862 172.138z" stroke="none" fill="#C7CFE2" fill-rule="nonzero" />
        <path d="M147.862 207.448L72.828 207.448C 71.609 207.448 70.621 206.45999 70.621 205.241L70.621 205.241L70.621 192C 70.621 190.781 71.609 189.793 72.828 189.793L72.828 189.793L147.862 189.793C 149.081 189.793 150.069 190.781 150.069 192L150.069 192L150.069 205.241C 150.069 206.461 149.081 207.448 147.862 207.448z" stroke="none" fill="#C7CFE2" fill-rule="nonzero" />
	</g>
    <path d="M368.552 225.103L346.483 225.103C 345.264 225.103 344.276 224.11499 344.276 222.896L344.276 222.896L344.276 192C 344.276 190.781 345.264 189.793 346.483 189.793L346.483 189.793L368.552 189.793C 369.771 189.793 370.759 190.781 370.759 192L370.759 192L370.759 222.897C 370.759 224.116 369.77 225.103 368.552 225.103z" stroke="none" fill="#C5D0E4" fill-rule="nonzero" />
	<g>
	</g>
	<g>
	</g>
	<g>
	</g>
	<g>
	</g>
	<g>
	</g>
	<g>
	</g>
	<g>
	</g>
	<g>
	</g>
	<g>
	</g>
	<g>
	</g>
	<g>
	</g>
	<g>
	</g>
	<g>
	</g>
	<g>
	</g>
	<g>
	</g>
</g>
</svg>