<?xml version="1.0" standalone="no"?>
<!DOCTYPE svg PUBLIC "-//W3C//DTD SVG 1.0//EN" "http://www.w3.org/TR/2001/REC-SVG-20010904/DTD/svg10.dtd">
<svg xmlns="http://www.w3.org/2000/svg" xmlns:xlink="http://www.w3.org/1999/xlink" id="body_1" width="164" height="123">

<g transform="matrix(0.4166116 0 0 0.4166116 20.500004 -0)">
	<g>
		<g>
            <path d="M157.143 152.381L280.952 152.381C 288.828 152.381 295.238 145.971 295.238 138.095C 295.238 130.219 288.828 123.809 280.952 123.809L280.952 123.809L14.286 123.809C 11.657001 123.809 9.524 121.671 9.524 119.047C 9.524 116.423 11.657 114.284996 14.286 114.284996L14.286 114.284996L138.095 114.284996C 145.97101 114.284996 152.381 107.875 152.381 99.99899L152.381 99.99899L152.381 90.47499L142.857 90.47499L142.857 100C 142.857 102.624 140.724 104.762 138.095 104.762L138.095 104.762L14.286 104.762C 6.41 104.762 0 111.171 0 119.048C 0 126.924995 6.41 133.334 14.286 133.334L14.286 133.334L280.953 133.334C 283.582 133.334 285.715 135.472 285.715 138.096C 285.715 140.71999 283.582 142.85799 280.953 142.85799L280.953 142.85799L157.143 142.85799C 149.267 142.85799 142.85701 149.26799 142.85701 157.14398L142.85701 157.14398L142.85701 166.66798L9.524 166.66798L9.524 295.23898L285.714 295.23898L285.714 166.667L152.381 166.667L152.381 157.143C 152.381 154.519 154.514 152.381 157.143 152.381zM276.19 285.714L19.048 285.714L19.048 176.19L276.19 176.19L276.19 285.714z" stroke="none" fill="#333333" fill-rule="nonzero" />
            <path d="M38.095 190.476L57.143 190.476L57.143 200L38.095 200z" stroke="none" fill="#333333" fill-rule="nonzero" />
            <path d="M71.429 190.476L90.477005 190.476L90.477005 200L71.429 200z" stroke="none" fill="#333333" fill-rule="nonzero" />
            <path d="M104.762 190.476L123.81 190.476L123.81 200L104.762 200z" stroke="none" fill="#333333" fill-rule="nonzero" />
            <path d="M138.095 190.476L157.143 190.476L157.143 200L138.095 200z" stroke="none" fill="#333333" fill-rule="nonzero" />
            <path d="M171.429 190.476L190.477 190.476L190.477 200L171.429 200z" stroke="none" fill="#333333" fill-rule="nonzero" />
            <path d="M204.762 190.476L223.81 190.476L223.81 200L204.762 200z" stroke="none" fill="#333333" fill-rule="nonzero" />
            <path d="M238.095 190.476L257.143 190.476L257.143 200L238.095 200z" stroke="none" fill="#333333" fill-rule="nonzero" />
            <path d="M171.429 95.238L123.81 95.238L123.81 67.81C 114.82 60.590996 109.523994 49.667 109.523994 38.095997C 109.524 17.09 126.614 0 147.619 0C 168.62401 0 185.714 17.09 185.714 38.095C 185.714 49.671 180.419 60.595 171.42801 67.809006L171.42801 67.809006L171.429 95.238z" stroke="none" fill="#F9BA48" fill-rule="nonzero" />
            <path d="M176.19 71.429L152.38 71.429L152.38 51.505C 157.90901 49.534 161.904 44.295002 161.904 38.095C 161.904 30.219002 155.494 23.809002 147.61801 23.809002C 139.74202 23.809002 133.33202 30.219002 133.33202 38.095C 133.33202 44.295002 137.32701 49.533 142.85602 51.505L142.85602 51.505L142.85602 71.429L119.04602 71.429L119.04602 80.953L176.18903 80.953L176.19 71.429zM147.619 33.333C 150.248 33.333 152.381 35.471 152.381 38.095C 152.381 40.719 150.248 42.857002 147.619 42.857002C 144.99 42.857002 142.85701 40.719 142.85701 38.095C 142.857 35.471 144.99 33.333 147.619 33.333z" stroke="none" fill="#333333" fill-rule="nonzero" />
            <path d="M71.429 33.333L95.239 33.333L95.239 42.857002L71.429 42.857002z" stroke="none" fill="#333333" fill-rule="nonzero" />
            <path transform="matrix(0.9238 -0.3828 0.3828 0.9238 -17.2802 38.5487)"  d="M76.32 57.933L100.128 57.933L100.128 67.457L76.32 67.457z" stroke="none" fill="#333333" fill-rule="nonzero" />
            <path transform="matrix(0.3827 -0.9239 0.9239 0.3827 69.8702 229.9467)"  d="M202.244 50.784L211.768 50.784L211.768 74.595L202.244 74.595z" stroke="none" fill="#333333" fill-rule="nonzero" />
            <path d="M200 33.333L223.81 33.333L223.81 42.857002L200 42.857002z" stroke="none" fill="#333333" fill-rule="nonzero" />
            <path transform="matrix(0.9238 -0.3828 0.3828 0.9238 10.6033 80.2754)"  d="M195.111 8.732L218.91899 8.732L218.91899 18.256L195.111 18.256z" stroke="none" fill="#333333" fill-rule="nonzero" />
            <path transform="matrix(0.3827 -0.9239 0.9239 0.3827 41.9943 89.837)"  d="M83.461 1.588L92.985 1.588L92.985 25.399L83.461 25.399z" stroke="none" fill="#333333" fill-rule="nonzero" />
            <path d="M38.095 214.286L57.143 214.286L57.143 223.81L38.095 223.81z" stroke="none" fill="#333333" fill-rule="nonzero" />
            <path d="M71.429 214.286L90.477005 214.286L90.477005 223.81L71.429 223.81z" stroke="none" fill="#333333" fill-rule="nonzero" />
            <path d="M104.762 214.286L123.81 214.286L123.81 223.81L104.762 223.81z" stroke="none" fill="#333333" fill-rule="nonzero" />
            <path d="M138.095 214.286L157.143 214.286L157.143 223.81L138.095 223.81z" stroke="none" fill="#333333" fill-rule="nonzero" />
            <path d="M171.429 214.286L190.477 214.286L190.477 223.81L171.429 223.81z" stroke="none" fill="#333333" fill-rule="nonzero" />
            <path d="M204.762 214.286L223.81 214.286L223.81 223.81L204.762 223.81z" stroke="none" fill="#333333" fill-rule="nonzero" />
            <path d="M238.095 214.286L257.143 214.286L257.143 223.81L238.095 223.81z" stroke="none" fill="#333333" fill-rule="nonzero" />
            <path d="M38.095 238.095L57.143 238.095L57.143 247.619L38.095 247.619z" stroke="none" fill="#333333" fill-rule="nonzero" />
            <path d="M71.429 238.095L90.477005 238.095L90.477005 247.619L71.429 247.619z" stroke="none" fill="#333333" fill-rule="nonzero" />
            <path d="M104.762 238.095L123.81 238.095L123.81 247.619L104.762 247.619z" stroke="none" fill="#333333" fill-rule="nonzero" />
            <path d="M138.095 238.095L157.143 238.095L157.143 247.619L138.095 247.619z" stroke="none" fill="#333333" fill-rule="nonzero" />
            <path d="M171.429 238.095L190.477 238.095L190.477 247.619L171.429 247.619z" stroke="none" fill="#333333" fill-rule="nonzero" />
            <path d="M204.762 238.095L223.81 238.095L223.81 247.619L204.762 247.619z" stroke="none" fill="#333333" fill-rule="nonzero" />
            <path d="M238.095 238.095L257.143 238.095L257.143 247.619L238.095 247.619z" stroke="none" fill="#333333" fill-rule="nonzero" />
            <path d="M38.095 261.905L57.143 261.905L57.143 271.429L38.095 271.429z" stroke="none" fill="#333333" fill-rule="nonzero" />
            <path d="M71.429 261.905L223.81 261.905L223.81 271.429L71.429 271.429z" stroke="none" fill="#333333" fill-rule="nonzero" />
            <path d="M238.095 261.905L257.143 261.905L257.143 271.429L238.095 271.429z" stroke="none" fill="#333333" fill-rule="nonzero" />
		</g>
	</g>
	<g>
	</g>
	<g>
	</g>
	<g>
	</g>
	<g>
	</g>
	<g>
	</g>
	<g>
	</g>
	<g>
	</g>
	<g>
	</g>
	<g>
	</g>
	<g>
	</g>
	<g>
	</g>
	<g>
	</g>
	<g>
	</g>
	<g>
	</g>
	<g>
	</g>
</g>
</svg>